<?xml version="1.0" encoding="iso-8859-1"?>
<!-- Generator: Adobe Illustrator 21.0.0, SVG Export Plug-In . SVG Version: 6.00 Build 0)  -->
<svg xmlns="http://www.w3.org/2000/svg" xmlns:xlink="http://www.w3.org/1999/xlink" version="1.1" id="Capa_1" x="0px" y="0px" viewBox="0 0 455.561 455.561" style="enable-background:new 0 0 455.561 455.561;" xml:space="preserve" width="512" height="512">
<g>
	<g>
		<g>
			<path style="fill:#D0CFD1;" d="M336.388,448.061v-2.074c0-27.5-22.5-50-50-50h-115.24c-27.5,0-50,22.5-50,50v2.074H336.388z"/>
		</g>
	</g>
	<g>
		<g>
			<polygon style="fill:#6ABA0F;" points="73.157,7.5 88.418,33.179 114.097,48.44 88.418,63.701 73.157,89.38 57.896,63.701      32.217,48.44 57.896,33.179    "/>
		</g>
	</g>
	<g>
		<g>
			<path style="fill:#7D8389;" d="M252.792,306.016h-48.05c-27.5,0-50-22.5-50-50V81.358c0-27.5,22.5-50,50-50h48.05     c27.5,0,50,22.5,50,50v174.658C302.792,283.516,280.292,306.016,252.792,306.016z"/>
		</g>
	</g>
	<g>
		<g>
			<path style="fill:#5D6265;" d="M246.335,31.358h-23.542c27.5,0,50,22.5,50,50v174.658c0,27.5-22.5,50-50,50h23.542     c27.5,0,50-22.5,50-50V81.358C296.335,53.858,273.835,31.358,246.335,31.358z"/>
		</g>
	</g>
	<g>
		<g>
			<rect x="207.998" y="306.016" style="fill:#D0CFD1;" width="41.539" height="86.792"/>
		</g>
	</g>
	<g>
		<g>
			<path style="fill:#B7B7B6;" d="M286.388,395.987h-30c27.5,0,50,22.5,50,50v2.074h30v-2.074     C336.388,418.487,313.888,395.987,286.388,395.987z"/>
		</g>
	</g>
	<g>
		<g>
			<rect x="228.767" y="306.016" style="fill:#B7B7B6;" width="20.769" height="86.792"/>
		</g>
	</g>
	<g>
		<g>
			<polygon style="fill:#F66722;" points="382.403,63.701 397.664,89.38 423.343,104.641 397.664,119.902 382.403,145.581      367.143,119.902 341.463,104.641 367.143,89.38    "/>
		</g>
	</g>
	<g>
		<g>
			<polygon style="fill:#F9D735;" points="67.687,283.044 80.908,305.292 103.156,318.514 80.908,331.735 67.687,353.983      54.465,331.735 32.217,318.514 54.465,305.292    "/>
		</g>
	</g>
	<g>
		<path d="M286.388,388.487h-29.351v-44.075c46.835-2.223,84.255-41.02,84.255-88.396v-26.943c0-4.142-3.358-7.5-7.5-7.5    s-7.5,3.358-7.5,7.5v26.943c0,39.103-30.696,71.161-69.255,73.368v-16.042c29.729-2.182,53.255-27.05,53.255-57.327V81.358    c0-31.706-25.794-57.5-57.5-57.5h-48.05c-31.706,0-57.5,25.794-57.5,57.5v4.29c0,4.142,3.358,7.5,7.5,7.5s7.5-3.358,7.5-7.5v-4.29    c0-23.435,19.065-42.5,42.5-42.5h48.05c23.435,0,42.5,19.065,42.5,42.5v13.624h-40.396c-4.142,0-7.5,3.358-7.5,7.5    s3.358,7.5,7.5,7.5h40.396v25.431h-40.396c-4.142,0-7.5,3.358-7.5,7.5s3.358,7.5,7.5,7.5h40.396v25.431h-40.396    c-4.142,0-7.5,3.358-7.5,7.5s3.358,7.5,7.5,7.5h40.396v25.431h-40.396c-4.142,0-7.5,3.358-7.5,7.5s3.358,7.5,7.5,7.5h40.396v24.74    c0,23.435-19.065,42.5-42.5,42.5h-3.255h-41.539h-3.255c-23.435,0-42.5-19.065-42.5-42.5v-24.74h40.396c4.142,0,7.5-3.358,7.5-7.5    s-3.358-7.5-7.5-7.5h-40.396v-25.431h40.396c4.142,0,7.5-3.358,7.5-7.5s-3.358-7.5-7.5-7.5h-40.396v-25.431h40.396    c4.142,0,7.5-3.358,7.5-7.5s-3.358-7.5-7.5-7.5h-40.396v-15.766c0-4.142-3.358-7.5-7.5-7.5s-7.5,3.358-7.5,7.5v136.368    c0,30.276,23.526,55.145,53.255,57.327v16.042c-38.559-2.208-69.255-34.266-69.255-73.368v-23.471c0-4.142-3.358-7.5-7.5-7.5    s-7.5,3.358-7.5,7.5v23.471c0,47.376,37.42,86.173,84.255,88.396v44.075h-29.351c-31.706,0-57.5,25.794-57.5,57.5v2.074    c0,4.142,3.358,7.5,7.5,7.5h48.259c4.142,0,7.5-3.358,7.5-7.5s-3.358-7.5-7.5-7.5h-40.414    c2.673-20.882,20.559-37.074,42.155-37.074h115.24c21.597,0,39.482,16.192,42.155,37.074H203.406c-4.142,0-7.5,3.358-7.5,7.5    s3.358,7.5,7.5,7.5h132.981c4.142,0,7.5-3.358,7.5-7.5v-2.074C343.888,414.281,318.093,388.487,286.388,388.487z M242.037,385.308    h-26.539v-71.792h26.539V385.308z"/>
		<path d="M28.386,54.887l24.039,14.286L66.71,93.211c1.352,2.274,3.801,3.668,6.447,3.668c2.646,0,5.096-1.394,6.447-3.668    l14.286-24.038l24.038-14.286c2.274-1.352,3.668-3.802,3.668-6.447s-1.394-5.096-3.668-6.447L93.891,27.707L79.604,3.668    C78.253,1.394,75.803,0,73.157,0c-2.646,0-5.096,1.394-6.447,3.668L52.424,27.707L28.386,41.992    c-2.274,1.352-3.668,3.802-3.668,6.448S26.111,53.536,28.386,54.887z M61.728,39.627c1.077-0.64,1.976-1.539,2.616-2.616    l8.813-14.83l8.814,14.831c0.64,1.076,1.539,1.976,2.616,2.615l14.83,8.813l-14.83,8.814c-1.077,0.64-1.976,1.539-2.616,2.615    l-8.814,14.83l-8.813-14.83c-0.64-1.077-1.539-1.976-2.616-2.616l-14.83-8.814L61.728,39.627z"/>
		<path d="M427.175,98.194l-24.039-14.286L388.85,59.869c-1.352-2.274-3.802-3.668-6.447-3.668c-2.646,0-5.096,1.394-6.447,3.668    L361.67,83.907l-24.039,14.286c-2.274,1.352-3.668,3.802-3.668,6.447s1.394,5.096,3.668,6.448l24.039,14.286l14.286,24.038    c1.352,2.274,3.801,3.668,6.447,3.668c2.646,0,5.096-1.394,6.447-3.668l14.286-24.039l24.039-14.286    c2.274-1.352,3.668-3.802,3.668-6.448S429.45,99.545,427.175,98.194z M393.833,113.454c-1.077,0.64-1.976,1.539-2.616,2.616    l-8.814,14.831l-8.813-14.83c-0.64-1.077-1.539-1.976-2.616-2.616l-14.83-8.813l14.83-8.814c1.077-0.64,1.976-1.539,2.616-2.616    l8.813-14.83l8.814,14.83c0.64,1.076,1.539,1.976,2.616,2.615l14.83,8.814L393.833,113.454z"/>
		<path d="M106.987,312.066L86.38,299.82l-12.247-20.607c-1.352-2.274-3.802-3.668-6.447-3.668c-2.646,0-5.096,1.394-6.447,3.668    L48.993,299.82l-20.607,12.247c-2.274,1.352-3.668,3.802-3.668,6.448s1.394,5.096,3.668,6.448l20.607,12.246l12.246,20.607    c1.352,2.274,3.801,3.668,6.447,3.668c2.646,0,5.096-1.394,6.447-3.668l12.247-20.607l20.607-12.246    c2.274-1.352,3.668-3.802,3.668-6.448S109.262,313.418,106.987,312.066z M77.077,325.288c-1.077,0.64-1.976,1.539-2.616,2.616    l-6.774,11.399l-6.774-11.399c-0.64-1.077-1.539-1.976-2.616-2.616l-11.399-6.774l11.399-6.774    c1.077-0.64,1.976-1.539,2.616-2.616l6.774-11.399l6.774,11.399c0.64,1.077,1.539,1.976,2.616,2.616l11.398,6.774L77.077,325.288z    "/>
	</g>
</g>















</svg>
