<?xml version="1.0" encoding="UTF-8"?>
<svg xmlns="http://www.w3.org/2000/svg" id="Icon" width="512" height="512" viewBox="0 0 64 64"><path d="M31.31314,47.79785a1.49946,1.49946,0,0,0,0-2.12109L10.33023,24.69336a1.49984,1.49984,0,0,0-2.1211,2.12109L29.192,47.79785A1.49946,1.49946,0,0,0,31.31314,47.79785Z"/><path d="M59.00009,38.5H51.00025A4.50488,4.50488,0,0,0,46.50034,43v9.5h-1.5a4.50487,4.50487,0,0,0-4.4999,4.5v3.5H38.57082l-7.049-6.26593a23.31936,23.31936,0,0,0,9.09539-5.61688,1.5,1.5,0,0,0,0-2.1211l-10.90047-10.901,3.70677-11.12048a1.50071,1.50071,0,0,0-1.89693-1.89746L20.40615,26.284,9.50549,15.38281a1.49972,1.49972,0,0,0-2.12105,0A23.49716,23.49716,0,0,0,6.504,47.68512L.62237,61.40918A1.50057,1.50057,0,0,0,2.00124,63.5H62A1.50005,1.50005,0,0,0,63.5,62V43A4.50487,4.50487,0,0,0,59.00009,38.5Zm-7.99984,3h7.99984a1.50163,1.50163,0,0,1,1.5,1.5v2.5H49.50028V43A1.50163,1.50163,0,0,1,51.00025,41.5Zm-1.5,7H60.50006v12H57.50012V57a4.50487,4.50487,0,0,0-4.49991-4.5H49.50028ZM43.5004,57a1.50163,1.50163,0,0,1,1.5-1.5h7.99984a1.50163,1.50163,0,0,1,1.5,1.5v3.5H43.5004ZM29.6291,26.37207l-2.28389,6.85138L22.7775,28.65552ZM8.48354,18.60352,37.397,47.51855a20.50046,20.50046,0,0,1-28.91347-28.915Zm.33129,31.30609a23.4287,23.4287,0,0,0,15.186,5.57965,23.67632,23.67632,0,0,0,4.01188-.3606L34.05528,60.5H4.2761Z"/><path d="M49,.5A14.5,14.5,0,1,0,63.5,15,14.51669,14.51669,0,0,0,49,.5ZM43.5,22A2.5,2.5,0,1,1,46,19.5,2.5,2.5,0,0,1,43.5,22ZM52,23.5A1.50007,1.50007,0,0,1,50.5,22,8.50982,8.50982,0,0,0,42,13.5a1.5,1.5,0,0,1,0-3A11.5131,11.5131,0,0,1,53.5,22,1.50007,1.50007,0,0,1,52,23.5Zm6-2A1.50007,1.50007,0,0,1,56.5,20,12.51408,12.51408,0,0,0,44,7.5a1.5,1.5,0,0,1,0-3A15.51737,15.51737,0,0,1,59.5,20,1.50007,1.50007,0,0,1,58,21.5Z" style="fill:#3e3ef4"/></svg>
